# This file uses centimeters as units for non-parametric coordinates.

mtllib moveplat.mtl
g default
v 0.069770 -1.000000 -0.022670
v 0.059350 -1.000000 -0.043120
v 0.043120 -1.000000 -0.059350
v 0.022670 -1.000000 -0.069770
v -0.000000 -1.000000 -0.073361
v -0.022670 -1.000000 -0.069770
v -0.043120 -1.000000 -0.059350
v -0.059350 -1.000000 -0.043120
v -0.069770 -1.000000 -0.022670
v -0.073361 -1.000000 -0.000000
v -0.069770 -1.000000 0.022670
v -0.059350 -1.000000 0.043120
v -0.043120 -1.000000 0.059350
v -0.022670 -1.000000 0.069770
v -0.000000 -1.000000 0.073361
v 0.022670 -1.000000 0.069770
v 0.043120 -1.000000 0.059350
v 0.059350 -1.000000 0.043120
v 0.069770 -1.000000 0.022670
v 0.073361 -1.000000 -0.000000
v 0.683281 1.000000 -0.309017
v 0.644091 1.000000 -0.587786
v 0.403312 1.000000 -0.809017
v 0.197303 1.000000 -0.852105
v -0.113423 1.000000 -0.842133
v -0.309017 1.000000 -0.779328
v -0.460676 1.000000 -0.567846
v -0.602737 1.000000 -0.445287
v -0.698431 1.000000 -0.201062
v -0.673268 1.000000 0.096211
v -0.720417 1.000000 0.407904
v -0.622460 1.000000 0.587785
v -0.316524 1.069497 0.809017
v -0.147317 1.000000 0.783905
v -0.000000 1.000000 0.652247
v 0.309017 1.000000 0.686872
v 0.587785 1.000000 0.538088
v 0.809017 1.000000 0.293780
v 0.682250 1.000000 0.015703
v 0.609392 1.000000 -0.134597
v -0.000000 -1.000000 -0.000000
v 0.000000 1.000000 0.000000
v -0.486602 -0.002441 -0.140295
v -0.419188 -0.002441 -0.304772
v -0.318172 -0.002441 -0.394667
v -0.206480 -0.002441 -0.528108
v -0.066998 -0.002441 -0.568348
v 0.138136 -0.002441 -0.569608
v 0.280820 -0.002441 -0.532192
v 0.438129 -0.002441 -0.386030
v 0.473322 -0.002441 -0.201855
v 0.435614 -0.002441 -0.074448
v 0.472734 -0.002441 0.039205
v 0.532175 -0.002441 0.222986
v 0.386014 -0.002441 0.382307
v 0.201839 -0.002441 0.479995
v -0.002320 -0.002441 0.464676
v -0.114273 -0.002441 0.535326
v -0.235972 0.037189 0.536800
v -0.430435 -0.002441 0.390638
v -0.499139 -0.002441 0.262853
v -0.476680 -0.002441 0.057167
v 0.264015 0.497560 0.606403
v -0.002847 0.497560 0.580125
v -0.137080 0.497560 0.685992
v -0.287955 0.554563 0.700430
v -0.548483 0.497560 0.509378
v -0.634988 0.497560 0.349748
v -0.598438 0.497560 0.080691
v -0.616955 0.497560 -0.176538
v -0.532305 0.497560 -0.388945
v -0.406191 0.497560 -0.499063
v -0.269709 0.497560 -0.678685
v -0.095880 0.497560 -0.732321
v 0.172385 0.497560 -0.738378
v 0.353445 0.497560 -0.696877
v 0.560530 0.497560 -0.505825
v 0.598834 0.497560 -0.265086
v 0.540351 0.497560 -0.108623
v 0.597988 0.497560 0.028056
v 0.695806 0.497560 0.268229
v 0.504754 0.497560 0.478208
v 0.140247 -0.502046 0.354338
v -0.000619 -0.502046 0.350836
v -0.091538 -0.502046 0.384310
v -0.184773 -0.480579 0.371191
v -0.311785 -0.502046 0.270343
v -0.362918 -0.502046 0.173811
v -0.355548 -0.502046 0.032118
v -0.356127 -0.502046 -0.105120
v -0.305693 -0.502046 -0.221527
v -0.229299 -0.502046 -0.291897
v -0.141485 -0.502046 -0.378096
v -0.035654 -0.502046 -0.404689
v 0.105740 -0.502046 -0.400576
v 0.210343 -0.502046 -0.366392
v 0.317229 -0.502046 -0.265543
v 0.350209 -0.502046 -0.138466
v 0.334579 -0.502046 -0.039175
v 0.349891 -0.502046 0.052666
v 0.368173 -0.502046 0.179529
v 0.267324 -0.502046 0.287505
vt 0.648603 0.107966
vt 0.626409 0.064408
vt 0.591842 0.029841
vt 0.548284 0.007647
vt 0.500000 -0.000000
vt 0.451716 0.007647
vt 0.408159 0.029841
vt 0.373591 0.064409
vt 0.351397 0.107966
vt 0.343750 0.156250
vt 0.351397 0.204534
vt 0.373591 0.248091
vt 0.408159 0.282659
vt 0.451716 0.304853
vt 0.500000 0.312500
vt 0.548284 0.304853
vt 0.591841 0.282659
vt 0.626409 0.248091
vt 0.648603 0.204534
vt 0.656250 0.156250
vt 0.375000 0.312500
vt 0.387500 0.312500
vt 0.400000 0.312500
vt 0.412500 0.312500
vt 0.425000 0.312500
vt 0.437500 0.312500
vt 0.450000 0.312500
vt 0.462500 0.312500
vt 0.475000 0.312500
vt 0.487500 0.312500
vt 0.500000 0.312500
vt 0.512500 0.312500
vt 0.525000 0.312500
vt 0.537500 0.312500
vt 0.550000 0.312500
vt 0.562500 0.312500
vt 0.575000 0.312500
vt 0.587500 0.312500
vt 0.600000 0.312500
vt 0.612500 0.312500
vt 0.625000 0.312500
vt 0.375000 0.687500
vt 0.387500 0.687500
vt 0.400000 0.687500
vt 0.412500 0.687500
vt 0.425000 0.687500
vt 0.437500 0.687500
vt 0.450000 0.687500
vt 0.462500 0.687500
vt 0.475000 0.687500
vt 0.487500 0.687500
vt 0.500000 0.687500
vt 0.512500 0.687500
vt 0.525000 0.687500
vt 0.537500 0.687500
vt 0.550000 0.687500
vt 0.562500 0.687500
vt 0.575000 0.687500
vt 0.587500 0.687500
vt 0.600000 0.687500
vt 0.612500 0.687500
vt 0.625000 0.687500
vt 0.648603 0.795466
vt 0.626409 0.751908
vt 0.591842 0.717341
vt 0.548284 0.695147
vt 0.500000 0.687500
vt 0.451716 0.695147
vt 0.408159 0.717341
vt 0.373591 0.751909
vt 0.351397 0.795466
vt 0.343750 0.843750
vt 0.351397 0.892034
vt 0.373591 0.935591
vt 0.408159 0.970159
vt 0.451716 0.992353
vt 0.500000 1.000000
vt 0.548284 0.992353
vt 0.591841 0.970159
vt 0.626409 0.935591
vt 0.648603 0.892034
vt 0.656250 0.843750
vt 0.500000 0.156250
vt 0.500000 0.843750
vt 0.475000 0.500000
vt 0.462500 0.500000
vt 0.450000 0.500000
vt 0.437500 0.500000
vt 0.425000 0.500000
vt 0.412500 0.500000
vt 0.400000 0.500000
vt 0.387500 0.500000
vt 0.625000 0.500000
vt 0.375000 0.500000
vt 0.612500 0.500000
vt 0.600000 0.500000
vt 0.587500 0.500000
vt 0.575000 0.500000
vt 0.562500 0.500000
vt 0.550000 0.500000
vt 0.537500 0.500000
vt 0.525000 0.500000
vt 0.512500 0.500000
vt 0.500000 0.500000
vt 0.487500 0.500000
vt 0.562500 0.593750
vt 0.550000 0.593750
vt 0.537500 0.593750
vt 0.525000 0.593750
vt 0.512500 0.593750
vt 0.500000 0.593750
vt 0.487500 0.593750
vt 0.475000 0.593750
vt 0.462500 0.593750
vt 0.450000 0.593750
vt 0.437500 0.593750
vt 0.425000 0.593750
vt 0.412500 0.593750
vt 0.400000 0.593750
vt 0.387500 0.593750
vt 0.625000 0.593750
vt 0.375000 0.593750
vt 0.612500 0.593750
vt 0.600000 0.593750
vt 0.587500 0.593750
vt 0.575000 0.593750
vt 0.562500 0.406250
vt 0.550000 0.406250
vt 0.537500 0.406250
vt 0.525000 0.406250
vt 0.512500 0.406250
vt 0.500000 0.406250
vt 0.487500 0.406250
vt 0.475000 0.406250
vt 0.462500 0.406250
vt 0.450000 0.406250
vt 0.437500 0.406250
vt 0.425000 0.406250
vt 0.412500 0.406250
vt 0.400000 0.406250
vt 0.387500 0.406250
vt 0.625000 0.406250
vt 0.375000 0.406250
vt 0.612500 0.406250
vt 0.600000 0.406250
vt 0.587500 0.406250
vt 0.575000 0.406250
vn 0.857891 -0.504824 -0.095794
vn 0.706275 -0.556911 -0.437064
vn 0.789329 -0.392151 -0.472416
vn 0.940575 -0.335966 -0.049453
vn 0.454014 -0.572131 -0.683035
vn 0.488273 -0.415512 -0.767424
vn 0.149736 -0.564304 -0.811875
vn 0.129554 -0.409696 -0.902976
vn -0.059583 -0.556766 -0.828530
vn -0.088260 -0.401977 -0.911386
vn -0.391738 -0.547523 -0.739432
vn -0.479883 -0.387008 -0.787361
vn -0.576695 -0.517050 -0.632521
vn -0.650013 -0.363122 -0.667552
vn -0.704109 -0.519864 -0.483705
vn -0.774369 -0.357114 -0.522325
vn -0.839759 -0.511344 -0.182573
vn -0.922919 -0.344180 -0.172514
vn -0.867650 -0.496845 -0.018110
vn -0.942272 -0.334047 -0.023172
vn -0.831019 -0.533057 0.158928
vn -0.918619 -0.364622 0.152282
vn -0.601478 -0.560823 0.568947
vn -0.654207 -0.405765 0.638254
vn -0.406561 -0.550797 0.728924
vn -0.411284 -0.384624 0.826384
vn -0.036863 -0.533863 0.844767
vn 0.100000 -0.376471 0.921016
vn 0.093511 -0.492509 0.865269
vn 0.127826 -0.333328 0.934105
vn 0.201274 -0.518880 0.830814
vn 0.207626 -0.345226 0.915265
vn 0.505678 -0.536797 0.675381
vn 0.564718 -0.369504 0.737943
vn 0.761783 -0.555519 0.333296
vn 0.875098 -0.387636 0.289727
vn 0.868138 -0.492223 -0.063660
vn 0.924462 -0.337583 -0.177222
vn 0.881153 -0.472825 -0.002528
vn 0.947979 -0.318317 -0.003267
vn 0.000000 -1.000000 0.000000
vn 0.000000 -1.000000 0.000000
vn 0.000000 -1.000000 -0.000000
vn 0.000000 -1.000000 -0.000001
vn 0.000000 -1.000000 -0.000001
vn 0.000000 -1.000000 0.000000
vn 0.000000 -1.000000 0.000000
vn 0.000000 -1.000000 0.000000
vn 0.000000 -1.000000 0.000000
vn 0.000000 -1.000000 0.000000
vn 0.000000 -1.000000 0.000000
vn 0.000000 -1.000000 0.000000
vn 0.000000 -1.000000 0.000000
vn 0.000000 -1.000000 -0.000001
vn 0.000000 -1.000000 -0.000001
vn 0.000000 -1.000000 -0.000000
vn 0.000000 -1.000000 0.000000
vn 0.000000 -1.000000 0.000000
vn 0.000000 -1.000000 0.000000
vn 0.000000 -1.000000 0.000000
vn 0.000000 -1.000000 0.000000
vn 0.000000 1.000000 0.000000
vn 0.000000 1.000000 0.000000
vn -0.005609 0.999894 -0.013439
vn 0.000000 1.000000 0.000000
vn 0.000000 1.000000 -0.000000
vn 0.000000 1.000000 -0.000000
vn 0.000000 1.000000 -0.000000
vn 0.000000 1.000000 0.000000
vn 0.000000 1.000000 0.000000
vn 0.000000 1.000000 0.000000
vn 0.000000 1.000000 0.000000
vn 0.000000 1.000000 0.000000
vn -0.084785 0.992346 -0.089786
vn 0.007782 0.996556 -0.082562
vn 0.317334 0.946437 0.059636
vn 0.000000 1.000000 0.000000
vn 0.000000 1.000000 0.000000
vn 0.000000 1.000000 0.000000
vn 0.000000 1.000000 0.000000
vn 0.000000 1.000000 0.000000
vn 0.000000 1.000000 0.000000
vn -0.803124 -0.269078 -0.531590
vn -0.954300 -0.257807 -0.151151
vn -0.969064 -0.205440 -0.136785
vn -0.817364 -0.216918 -0.533725
vn -0.696438 -0.268099 -0.665656
vn -0.722615 -0.217562 -0.656121
vn -0.543975 -0.300687 -0.783376
vn -0.582418 -0.243406 -0.775592
vn -0.113167 -0.316656 -0.941766
vn -0.129122 -0.261733 -0.956464
vn 0.097990 -0.324273 -0.940875
vn 0.076169 -0.268582 -0.960241
vn 0.492345 -0.334361 -0.803616
vn 0.493422 -0.278620 -0.823958
vn 0.822693 -0.310624 -0.476119
vn 0.839449 -0.258344 -0.478104
vn 0.970693 -0.240105 0.010251
vn 0.979374 -0.196273 0.047993
vn 0.976729 -0.214474 -0.000864
vn 0.983852 -0.178969 0.002413
vn 0.923481 -0.243918 -0.296118
vn 0.906408 -0.200485 -0.371792
vn 0.921540 -0.312735 0.230133
vn 0.945500 -0.258625 0.197848
vn 0.587896 -0.283903 0.757481
vn 0.599459 -0.233178 0.765687
vn 0.198360 -0.259518 0.945148
vn 0.192532 -0.209482 0.958670
vn 0.163576 -0.231631 0.958953
vn 0.191910 -0.186810 0.963469
vn 0.242108 -0.265792 0.933134
vn 0.336310 -0.214956 0.916891
vn -0.390472 -0.313925 0.865438
vn -0.378673 -0.248324 0.891595
vn -0.663062 -0.315871 0.678656
vn -0.666439 -0.259418 0.698971
vn -0.952170 -0.277089 0.128820
vn -0.968870 -0.219675 0.114166
vn -0.970084 -0.241016 -0.029114
vn -0.980890 -0.191647 -0.033566
vn 0.201296 -0.170470 0.964583
vn 0.207873 -0.147259 0.967007
vn 0.328059 -0.173180 0.928647
vn -0.398623 -0.210407 0.892653
vn -0.663737 -0.208030 0.718455
vn -0.976356 -0.177494 0.123393
vn -0.987996 -0.149922 -0.037262
vn -0.977103 -0.163913 -0.135654
vn -0.824458 -0.174662 -0.538296
vn -0.736185 -0.173669 -0.654118
vn -0.590149 -0.200173 -0.782083
vn -0.134809 -0.216772 -0.966869
vn 0.071138 -0.223529 -0.972098
vn 0.495269 -0.234705 -0.836434
vn 0.843162 -0.217896 -0.491528
vn 0.985736 -0.161741 0.046528
vn 0.989521 -0.143690 0.014231
vn 0.902433 -0.165741 -0.397673
vn 0.956880 -0.219422 0.190356
vn 0.610646 -0.192220 0.768221
s 1
g pCylinder1
usemtl initialShadingGroup
f 1/21/1 2/22/2 97/141/3 98/143/4
f 2/22/2 3/23/5 96/140/6 97/141/3
f 3/23/5 4/24/7 95/139/8 96/140/6
f 4/24/7 5/25/9 94/138/10 95/139/8
f 5/25/9 6/26/11 93/137/12 94/138/10
f 6/26/11 7/27/13 92/136/14 93/137/12
f 7/27/13 8/28/15 91/135/16 92/136/14
f 8/28/15 9/29/17 90/134/18 91/135/16
f 9/29/17 10/30/19 89/133/20 90/134/18
f 10/30/19 11/31/21 88/132/22 89/133/20
f 11/31/21 12/32/23 87/131/24 88/132/22
f 12/32/23 13/33/25 86/130/26 87/131/24
f 13/33/25 14/34/27 85/129/28 86/130/26
f 14/34/27 15/35/29 84/128/30 85/129/28
f 15/35/29 16/36/31 83/127/32 84/128/30
f 16/36/31 17/37/33 102/147/34 83/127/32
f 17/37/33 18/38/35 101/146/36 102/147/34
f 18/38/35 19/39/37 100/145/38 101/146/36
f 19/39/37 20/40/39 99/144/40 100/145/38
f 20/40/39 1/41/1 98/142/4 99/144/40
s 2
f 2/2/41 1/1/42 41/83/43
f 3/3/44 2/2/41 41/83/43
f 4/4/45 3/3/44 41/83/43
f 5/5/46 4/4/45 41/83/43
f 6/6/47 5/5/46 41/83/43
f 7/7/48 6/6/47 41/83/43
f 8/8/49 7/7/48 41/83/43
f 9/9/50 8/8/49 41/83/43
f 10/10/51 9/9/50 41/83/43
f 11/11/52 10/10/51 41/83/43
f 12/12/53 11/11/52 41/83/43
f 13/13/54 12/12/53 41/83/43
f 14/14/55 13/13/54 41/83/43
f 15/15/56 14/14/55 41/83/43
f 16/16/57 15/15/56 41/83/43
f 17/17/58 16/16/57 41/83/43
f 18/18/59 17/17/58 41/83/43
f 19/19/60 18/18/59 41/83/43
f 20/20/61 19/19/60 41/83/43
f 1/1/42 20/20/61 41/83/43
s 3
f 21/81/62 22/80/63 42/84/64
f 22/80/63 23/79/65 42/84/64
f 23/79/65 24/78/66 42/84/64
f 24/78/66 25/77/67 42/84/64
f 25/77/67 26/76/68 42/84/64
f 26/76/68 27/75/69 42/84/64
f 27/75/69 28/74/70 42/84/64
f 28/74/70 29/73/71 42/84/64
f 29/73/71 30/72/72 42/84/64
f 30/72/72 31/71/73 42/84/64
f 31/71/73 32/70/74 42/84/64
f 32/70/74 33/69/75 42/84/64
f 33/69/75 34/68/76 42/84/64
f 34/68/76 35/67/77 42/84/64
f 35/67/77 36/66/78 42/84/64
f 36/66/78 37/65/79 42/84/64
f 37/65/79 38/64/80 42/84/64
f 38/64/80 39/63/81 42/84/64
f 39/63/81 40/82/82 42/84/64
f 40/82/82 21/81/62 42/84/64
s 1
f 44/86/83 43/85/84 70/113/85 71/114/86
f 45/87/87 44/86/83 71/114/86 72/115/88
f 46/88/89 45/87/87 72/115/88 73/116/90
f 47/89/91 46/88/89 73/116/90 74/117/92
f 48/90/93 47/89/91 74/117/92 75/118/94
f 49/91/95 48/90/93 75/118/94 76/119/96
f 50/92/97 49/91/95 76/119/96 77/120/98
f 51/94/99 50/92/97 77/120/98 78/122/100
f 52/95/101 51/93/99 78/121/100 79/123/102
f 53/96/103 52/95/101 79/123/102 80/124/104
f 54/97/105 53/96/103 80/124/104 81/125/106
f 55/98/107 54/97/105 81/125/106 82/126/108
f 56/99/109 55/98/107 82/126/108 63/106/110
f 57/100/111 56/99/109 63/106/110 64/107/112
f 58/101/113 57/100/111 64/107/112 65/108/114
f 59/102/115 58/101/113 65/108/114 66/109/116
f 60/103/117 59/102/115 66/109/116 67/110/118
f 61/104/119 60/103/117 67/110/118 68/111/120
f 62/105/121 61/104/119 68/111/120 69/112/122
f 43/85/84 62/105/121 69/112/122 70/113/85
f 64/107/112 63/106/110 36/57/123 35/56/124
f 65/108/114 64/107/112 35/56/124 34/55/125
f 66/109/116 65/108/114 34/55/125 33/54/126
f 67/110/118 66/109/116 33/54/126 32/53/127
f 68/111/120 67/110/118 32/53/127 31/52/128
f 69/112/122 68/111/120 31/52/128 30/51/129
f 70/113/85 69/112/122 30/51/129 29/50/130
f 71/114/86 70/113/85 29/50/130 28/49/131
f 72/115/88 71/114/86 28/49/131 27/48/132
f 73/116/90 72/115/88 27/48/132 26/47/133
f 74/117/92 73/116/90 26/47/133 25/46/134
f 75/118/94 74/117/92 25/46/134 24/45/135
f 76/119/96 75/118/94 24/45/135 23/44/136
f 77/120/98 76/119/96 23/44/136 22/43/137
f 78/122/100 77/120/98 22/43/137 21/42/138
f 79/123/102 78/121/100 21/62/138 40/61/139
f 80/124/104 79/123/102 40/61/139 39/60/140
f 81/125/106 80/124/104 39/60/140 38/59/141
f 82/126/108 81/125/106 38/59/141 37/58/142
f 63/106/110 82/126/108 37/58/142 36/57/123
f 84/128/30 83/127/32 56/99/109 57/100/111
f 85/129/28 84/128/30 57/100/111 58/101/113
f 86/130/26 85/129/28 58/101/113 59/102/115
f 87/131/24 86/130/26 59/102/115 60/103/117
f 88/132/22 87/131/24 60/103/117 61/104/119
f 89/133/20 88/132/22 61/104/119 62/105/121
f 90/134/18 89/133/20 62/105/121 43/85/84
f 91/135/16 90/134/18 43/85/84 44/86/83
f 92/136/14 91/135/16 44/86/83 45/87/87
f 93/137/12 92/136/14 45/87/87 46/88/89
f 94/138/10 93/137/12 46/88/89 47/89/91
f 95/139/8 94/138/10 47/89/91 48/90/93
f 96/140/6 95/139/8 48/90/93 49/91/95
f 97/141/3 96/140/6 49/91/95 50/92/97
f 98/143/4 97/141/3 50/92/97 51/94/99
f 99/144/40 98/142/4 51/93/99 52/95/101
f 100/145/38 99/144/40 52/95/101 53/96/103
f 101/146/36 100/145/38 53/96/103 54/97/105
f 102/147/34 101/146/36 54/97/105 55/98/107
f 83/127/32 102/147/34 55/98/107 56/99/109
