# This file uses centimeters as units for non-parametric coordinates.

mtllib finalgem.mtl
g default
v 0.000000 -0.000000 -1.000000
v 0.723607 0.525731 -0.447214
v -0.276393 0.850651 -0.447214
v -0.894427 -0.000000 -0.447214
v 0.723607 -0.525731 -0.447214
v 0.894427 -0.000000 0.447214
v -0.723607 0.525731 0.447214
v -0.723607 -0.525731 0.447214
v 0.276393 -0.850651 0.447214
v -0.000000 -0.000000 1.000000
v 0.000000 -0.403232 -1.443344
v -0.329043 -1.742403 -0.989984
v -1.064806 -0.180131 -0.645357
v 0.861446 -1.146453 -0.858841
v -0.861446 -0.780187 0.435640
v 0.329043 -1.378567 0.302972
v -0.329043 1.380310 -0.301879
v 0.861446 0.787292 -0.431184
v 0.329043 1.742403 0.989984
v 1.064806 0.179870 0.645194
v -0.861446 1.146430 0.858826
v -0.000000 0.404427 1.444094
vt 1.000000 0.500000
vt 0.838104 0.676208
vt 0.088104 0.823792
vt 0.176208 0.500000
vt 0.088104 0.176208
vt 0.838104 0.323792
vt 0.676208 0.500000
vt 0.588104 0.823792
vt 0.338104 0.676208
vt 0.338104 0.323792
vt 0.588104 0.176208
vt 0.500000 0.500000
vt 1.088104 0.823792
vt 1.176208 0.500000
vt 1.088104 0.176208
vt 1.176208 0.500000
vt 1.000000 0.500000
vt 0.838104 0.323792
vt 0.838104 0.676208
vt 1.088104 0.823792
vt 0.338104 0.323792
vt 0.176208 0.500000
vt 0.588104 0.176208
vt 0.676208 0.500000
vt 0.088104 0.823792
vt 0.338104 0.676208
vt 0.500000 0.500000
vn 0.187593 0.577350 -0.794654
vn 0.187593 0.577350 -0.794655
vn 0.187593 0.577350 -0.794654
vn -0.491124 0.356822 -0.794655
vn -0.491123 0.356822 -0.794654
vn -0.491124 0.356822 -0.794655
vn -0.611042 -0.115005 -0.783200
vn -0.611041 -0.115005 -0.783200
vn -0.611042 -0.115005 -0.783200
vn 0.282324 -0.369130 -0.885458
vn 0.282324 -0.369130 -0.885458
vn 0.282324 -0.369130 -0.885458
vn 0.607062 -0.000000 -0.794654
vn 0.607062 -0.000000 -0.794654
vn 0.607062 -0.000000 -0.794654
vn 0.367716 0.829748 -0.419885
vn 0.367716 0.829748 -0.419885
vn 0.367716 0.829748 -0.419885
vn -0.794655 0.577350 -0.187592
vn -0.794655 0.577350 -0.187592
vn -0.794655 0.577350 -0.187592
vn -0.908077 -0.414583 -0.059304
vn -0.908077 -0.414583 -0.059304
vn -0.908077 -0.414583 -0.059304
vn 0.445271 -0.895041 0.025230
vn 0.445271 -0.895041 0.025230
vn 0.445271 -0.895041 0.025230
vn 0.982247 0.000000 -0.187593
vn 0.982247 0.000000 -0.187593
vn 0.982247 0.000000 -0.187593
vn 0.908181 0.413957 0.062022
vn 0.908181 0.413957 0.062022
vn 0.908181 0.413957 0.062022
vn -0.445411 0.895006 -0.023962
vn -0.445411 0.895006 -0.023962
vn -0.445411 0.895006 -0.023962
vn -0.982247 0.000000 0.187593
vn -0.982247 0.000000 0.187593
vn -0.982247 0.000000 0.187593
vn -0.369429 -0.828355 0.421129
vn -0.369429 -0.828355 0.421129
vn -0.369429 -0.828355 0.421129
vn 0.794654 -0.577350 0.187592
vn 0.794654 -0.577350 0.187592
vn 0.794655 -0.577350 0.187592
vn 0.611581 0.115259 0.782742
vn 0.611581 0.115259 0.782742
vn 0.611581 0.115259 0.782742
vn -0.282679 0.369896 0.885025
vn -0.282679 0.369896 0.885025
vn -0.282679 0.369896 0.885025
vn -0.607062 -0.000000 0.794655
vn -0.607062 -0.000000 0.794655
vn -0.607062 -0.000000 0.794655
vn -0.187592 -0.577350 0.794654
vn -0.187592 -0.577350 0.794654
vn -0.187592 -0.577350 0.794654
vn 0.491123 -0.356822 0.794654
vn 0.491123 -0.356822 0.794654
vn 0.491123 -0.356822 0.794655
vn -0.321571 0.741485 -0.588891
vn -0.321571 0.741485 -0.588891
vn -0.321571 0.741485 -0.588891
vn -0.321571 0.741485 -0.588891
vn 0.732017 0.492016 -0.471245
vn 0.732017 0.492016 -0.471245
vn 0.732017 0.492016 -0.471245
vn 0.732017 0.492016 -0.471245
vn -0.830013 0.402187 0.386424
vn -0.830013 0.402187 0.386424
vn -0.830013 0.402187 0.386424
vn -0.830013 0.402187 0.386424
vn 0.906952 -0.051890 0.418026
vn 0.906952 -0.051890 0.418026
vn 0.906952 -0.051890 0.418026
vn 0.906952 -0.051890 0.418026
vn -0.021928 -0.192977 0.980958
vn -0.021928 -0.192977 0.980958
vn -0.021928 -0.192977 0.980958
vn -0.021928 -0.192977 0.980958
vn 0.024788 0.197205 -0.980049
vn 0.024788 0.197205 -0.980049
vn 0.024788 0.197205 -0.980049
vn 0.024788 0.197205 -0.980049
vn 0.833755 -0.395232 -0.385545
vn 0.833755 -0.395232 -0.385545
vn 0.833755 -0.395232 -0.385545
vn 0.833755 -0.395232 -0.385545
vn -0.906903 0.052242 -0.418087
vn -0.906903 0.052242 -0.418087
vn -0.906903 0.052242 -0.418087
vn -0.906903 0.052242 -0.418087
vn 0.321545 -0.741239 0.589214
vn 0.321545 -0.741239 0.589214
vn 0.321545 -0.741239 0.589214
vn 0.321545 -0.741239 0.589214
vn -0.731944 -0.491941 0.471436
vn -0.731944 -0.491941 0.471436
vn -0.731944 -0.491941 0.471436
vn -0.731944 -0.491941 0.471436
s off
g pPlatonic1
usemtl initialShadingGroup
f 1/1/1 3/13/2 2/2/3
f 1/1/4 4/14/5 3/13/6
f 11/17/7 12/15/8 13/16/9
f 11/17/10 14/18/11 12/15/12
f 1/1/13 2/2/14 5/6/15
f 18/19/16 17/20/17 19/8/18
f 3/3/19 4/4/20 7/9/21
f 13/22/22 12/5/23 15/21/24
f 12/15/25 14/18/26 16/23/27
f 5/6/28 2/2/29 6/7/30
f 18/19/31 19/8/32 20/24/33
f 17/25/34 21/26/35 19/8/36
f 4/4/37 8/10/38 7/9/39
f 12/5/40 16/23/41 15/21/42
f 5/6/43 6/7/44 9/11/45
f 20/24/46 19/8/47 22/27/48
f 19/8/49 21/26/50 22/27/51
f 7/9/52 8/10/53 10/12/54
f 8/10/55 9/11/56 10/12/57
f 9/11/58 6/7/59 10/12/60
f 4/14/61 1/1/62 11/17/63 13/16/64
f 1/1/65 5/6/66 14/18/67 11/17/68
f 8/2/69 4/13/70 13/20/71 15/19/72
f 5/10/73 9/4/74 16/22/75 14/21/76
f 9/6/77 8/11/78 15/23/79 16/18/80
f 2/7/81 3/2/82 17/19/83 18/24/84
f 6/3/85 2/9/86 18/26/87 20/25/88
f 3/11/89 7/10/90 21/21/91 17/23/92
f 10/12/93 6/7/94 20/24/95 22/27/96
f 7/9/97 10/12/98 22/27/99 21/26/100
